<?xml version="1.0" encoding="utf-8"?>
<!-- Generator: Adobe Illustrator 24.2.0, SVG Export Plug-In . SVG Version: 6.00 Build 0)  -->
<svg version="1.1" id="Layer_1" xmlns="http://www.w3.org/2000/svg" xmlns:xlink="http://www.w3.org/1999/xlink" x="0px" y="0px"
	 viewBox="0 0 1000 1000" style="enable-background:new 0 0 1000 1000;" xml:space="preserve">
<style type="text/css">
	.st0{fill:#F3BA2C;}
</style>
<g>
	<path id="Shape" class="st0" d="M324.2,418.1h36.6c9.3,0,16.1,2.5,20.5,6.8c4.3,3.7,6.2,8.7,6.2,13.6l0,0c0,1.9,0,4.3-0.6,6.2
		c-1.2,3.1-3.1,6.2-5.6,8.7c-1.2,1.2-2.5,1.9-3.7,2.5c4.3,1.2,8.1,3.7,11.2,6.8c2.5,3.1,3.7,6.8,3.7,12.4l0,0c0,3.1-0.6,6.8-1.9,9.3
		c-1.2,2.5-3.7,5-6.2,6.8c-3.1,1.9-6.2,3.1-9.3,4.3c-3.7,1.2-8.1,1.2-12.4,1.2h-37.8v-78.8H324.2z M357.7,450.4
		c3.1,0,6.2-0.6,9.3-1.9c2.5-1.2,3.7-3.7,3.7-6.2l0,0c0-2.5-1.2-5-3.1-6.2c-2.5-1.9-5.6-2.5-8.7-1.9h-17.4V451h16.1V450.4z M362,482
		c3.1,0,6.2-0.6,9.3-1.9c2.5-1.2,3.7-3.7,3.1-6.8l0,0c0-2.5-1.2-5-3.1-6.2c-1.9-1.2-5.6-2.5-9.9-2.5h-20.5V482H362z"/>
	<polygon id="Path" class="st0" points="414.1,418.1 431.5,418.1 431.5,497.5 414.1,497.5 	"/>
	<polygon id="Path_1_" class="st0" points="458.1,418.1 474.3,418.1 511.5,467.1 511.5,418.1 528.8,418.1 528.8,497.5 514,497.5 
		474.9,447.3 474.9,497.5 458.1,497.5 	"/>
	<path id="Shape_1_" class="st0" d="M581.5,417.5h16.1l34.1,80h-18l-7.4-18h-33.5l-7.4,18h-18L581.5,417.5z M600.1,464.7l-10.5-26
		l-10.5,26H600.1z"/>
	<polygon id="Path_2_" class="st0" points="650.4,418.1 666.5,418.1 703.7,467.1 703.7,418.1 721.1,418.1 721.1,497.5 706.2,497.5 
		667.7,447.3 667.7,497.5 650.4,497.5 	"/>
	<path id="Path_3_" class="st0" d="M784.3,498.8c-5.6,0-11.2-1.2-16.1-3.1c-9.9-4.3-17.4-11.8-21.7-21.7c-1.9-5-3.1-10.5-3.1-16.1
		l0,0c0-10.5,4.3-21.1,11.8-29.1c3.7-3.7,8.1-6.8,13-8.7c5.6-2.5,11.2-3.1,16.7-3.1c3.1,0,6.8,0,9.9,0.6c3.1,0.6,5.6,1.2,8.1,2.5
		c2.5,1.2,5,2.5,6.8,3.7c1.9,1.2,4.3,3.1,6.2,5l-10.5,13c-3.1-2.5-6.2-5-9.3-6.8s-6.8-2.5-10.5-2.5c-3.1,0-6.2,0.6-9.3,1.9
		c-3.1,1.2-5.6,3.1-7.4,5.6c-1.9,2.5-3.7,5-5,8.1s-1.9,6.2-1.9,9.3l0,0c0,3.1,0.6,6.8,1.9,9.9c1.2,3.1,2.5,5.6,5,8.1
		c4.3,5,10.5,7.4,16.7,7.4c3.7,0,8.1-0.6,11.8-2.5c3.1-1.9,6.8-4.3,9.3-6.8l11.2,11.2c-1.9,1.9-4.3,4.3-6.2,6.2
		c-2.5,1.9-5,3.1-7.4,4.3c-2.5,1.2-5.6,2.5-8.7,3.1C791.1,498.8,787.4,498.8,784.3,498.8L784.3,498.8z"/>
	<polygon id="Path_4_" class="st0" points="837.6,418.1 897.2,418.1 897.2,433.6 854.4,433.6 854.4,449.8 892.2,449.8 892.2,465.3 
		854.4,465.3 854.4,482 897.8,482 897.8,497.5 837.6,497.5 	"/>
	<path id="Path_5_" class="st0" d="M346.5,575.7c-4.3,0-8.7-0.6-12.4-2.5c-3.7-1.2-7.4-3.7-11.2-6.8l6.2-6.8c2.5,2.5,5,3.7,8.1,5.6
		c3.1,1.2,6.2,1.9,9.3,1.9c2.5,0,5-0.6,7.4-1.9c1.9-1.2,2.5-3.1,2.5-5l0,0c0-0.6,0-1.9-0.6-2.5c-0.6-0.6-1.2-1.9-1.9-2.5
		c-1.2-0.6-2.5-1.2-3.7-1.9c-1.9-0.6-4.3-1.2-6.2-1.9c-2.5-0.6-5.6-1.2-8.1-2.5c-1.9-0.6-4.3-1.9-5.6-3.1c-1.2-1.2-2.5-2.5-3.7-4.3
		c-1.2-2.5-1.2-5-1.2-6.8l0,0c0-2.5,0.6-4.3,1.2-6.8c0.6-1.9,2.5-3.7,3.7-5c1.9-1.2,3.7-2.5,6.2-3.1c2.5-0.6,5-1.2,7.4-1.2
		c3.7,0,7.4,0.6,11.2,1.9c3.1,1.2,6.2,3.1,9.3,5l-5,7.4c-2.5-1.9-5-3.1-7.4-4.3s-5-1.2-7.4-1.2s-5,0.6-6.8,1.9
		c-1.2,1.2-2.5,3.1-2.5,5l0,0c0,1.2,0,1.9,0.6,3.1c0.6,0.6,1.2,1.9,1.9,2.5c1.2,0.6,2.5,1.2,4.3,1.9c1.9,0.6,3.7,1.2,6.8,1.9
		c2.5,0.6,5,1.2,8.1,2.5c1.9,0.6,3.7,1.9,5.6,3.1c1.2,1.2,2.5,3.1,3.1,4.3c0.6,1.9,1.2,3.7,1.2,6.2l0,0c0,2.5-0.6,5-1.2,6.8
		c-1.2,1.9-2.5,3.7-4.3,5.6c-1.9,1.2-3.7,2.5-6.2,3.1C352.1,575,349,575.7,346.5,575.7z"/>
	<polygon id="Path_6_" class="st0" points="377.5,519.2 388.1,519.2 404.8,545.3 422.2,519.2 432.7,519.2 432.7,575 422.8,575 
		422.8,534.7 405.4,560.8 404.8,560.8 387.5,534.7 387.5,575 377.5,575 	"/>
	<path id="Shape_2_" class="st0" d="M466.2,518.6h9.3l24.2,55.8h-10.5l-5.6-13.6h-26l-5.6,13.6H442L466.2,518.6z M480.5,552.7
		l-9.9-22.3l-9.3,22.3H480.5z"/>
	<path id="Shape_3_" class="st0" d="M509.6,519.2h24.8c3.1,0,6.2,0.6,9.3,1.2c2.5,0.6,5,2.5,6.8,4.3c1.2,1.2,2.5,3.1,3.7,5.6
		c0.6,1.9,1.2,4.3,1.2,6.8l0,0c0,1.9-0.6,4.3-1.2,6.2c-0.6,1.9-1.9,3.1-2.5,5c-1.2,1.2-2.5,2.5-4.3,3.7c-1.9,1.2-3.7,1.9-5.6,2.5
		l14.9,21.1H545l-13.6-19.2h-12.4v19.2H509L509.6,519.2z M533.8,546.5c3.1,0,6.2-0.6,8.1-2.5c1.9-1.9,3.1-4.3,3.1-6.8l0,0
		c0-2.5-1.2-5-3.1-6.8c-2.5-1.9-5.6-2.5-8.7-2.5h-14.3v18.6H533.8z"/>
	<polygon id="Path_7_" class="st0" points="580.9,527.9 562.9,527.9 562.9,519.2 608.2,519.2 608.2,527.9 590.2,527.9 590.2,575 
		580.3,575 	"/>
	<path id="Path_8_" class="st0" d="M668.4,575.7c-3.7,0-7.4-0.6-11.2-2.5c-6.8-3.1-12.4-8.1-14.9-14.9c-1.2-3.7-2.5-7.4-1.9-11.2
		l0,0c0-3.7,0.6-7.4,1.9-11.2c2.5-6.8,8.1-12.4,14.9-15.5c3.7-1.2,7.4-2.5,11.8-2.5c2.5,0,5,0,6.8,0.6s3.7,1.2,5.6,1.9
		c1.9,0.6,3.1,1.9,5,2.5c1.2,1.2,3.1,2.5,4.3,3.7l-6.2,7.4c-1.9-1.9-4.3-3.7-6.8-5s-5.6-1.9-8.7-1.9c-2.5,0-5,0.6-7.4,1.2
		c-2.5,1.2-4.3,2.5-6.2,4.3s-3.1,3.7-3.7,6.2c-0.6,2.5-1.2,5-1.2,7.4l0,0c0,2.5,0.6,5,1.2,7.4c0.6,2.5,1.9,4.3,3.7,6.2
		c1.9,1.9,3.7,3.1,6.2,4.3s5,1.9,7.4,1.2c3.1,0,6.2-0.6,8.7-1.9c2.5-1.2,5-3.1,7.4-5.6l6.2,6.2c-1.2,1.2-3.1,3.1-4.3,4.3
		c-1.9,1.2-3.1,2.5-5,3.1c-1.9,0.6-3.7,1.9-6.2,1.9C673.3,575.7,670.8,575.7,668.4,575.7L668.4,575.7z"/>
	<polygon id="Path_9_" class="st0" points="701.2,519.2 710.5,519.2 710.5,542.2 737.2,542.2 737.2,519.2 747.1,519.2 747.1,575 
		737.2,575 737.2,551.5 710.5,551.5 710.5,575 701.2,575 	"/>
	<path id="Shape_4_" class="st0" d="M781.2,518.6h9.3l24.2,55.8h-10.5l-5.6-13.6h-26l-5.6,13.6H757L781.2,518.6z M794.9,552.7
		l-9.3-22.3l-9.3,22.3H794.9z"/>
	<polygon id="Path_10_" class="st0" points="824.6,519.2 834.5,519.2 834.5,575 824.6,575 	"/>
	<polygon id="Path_11_" class="st0" points="849.4,519.2 858.1,519.2 887.9,557.7 887.9,519.2 897.8,519.2 897.8,575 889.7,575 
		859.3,535.3 859.3,575 849.4,575 	"/>
	<path id="binancedex" class="st0" d="M215.1,571.3v24.2L194,607.9l-20.5-12.4v-24.2l20.5,12.4L215.1,571.3z M102.2,487.6l20.5,12.4
		v41.5l35.3,21.1v24.2l-55.8-32.9V487.6z M285.8,487.6v66.4l-56.4,32.9v-24.2l35.3-21.1V500L285.8,487.6z M229.3,454.7l21.1,12.4
		l0,0v24.2l-35.3,21.1v42.2L194.6,567l-20.5-12.4v-42.2l-36.6-21.1v-24.2l21.1-12.4l35.3,21.1L229.3,454.7z M137.6,508.7l20.5,12.4
		v24.2l-20.5-12.4V508.7z M250.4,508.7v24.2l-20.5,12.4v-24.2L250.4,508.7z M122.7,433.6l21.1,12.4l-21.1,12.4v24.2l-20.5-12.4
		v-24.2L122.7,433.6z M265.3,433.6l21.1,12.4v24.2l-21.1,12.4v-24.2l-20.5-12.4L265.3,433.6z M194,433.6l21.1,12.4L194,458.5
		l-20.5-12.4L194,433.6z M194,392.1l56.4,32.9l-20.5,12.4l-35.3-21.1l-36,21.1L138.2,425L194,392.1z"/>
</g>
</svg>
